<svg width="24" height="24" viewBox="0 0 24 24" fill="none" xmlns="http://www.w3.org/2000/svg">
<path d="M21.9984 17.0019H21.9884C21.9784 19.8119 20.0184 22.2519 17.2684 22.8519L16.6284 20.9319V20.9219C17.8084 20.7219 18.8384 20.0119 19.4384 18.9719H16.9684L16.9584 18.9709C15.8484 18.9609 14.9584 18.0709 14.9584 16.9609V12.9609C14.9484 11.8509 15.8484 10.9509 16.9484 10.9509H19.8784C19.3184 6.56092 15.3184 3.46092 10.9284 4.01092C7.29844 4.46092 4.44844 7.32092 3.98844 10.9409H6.91844H6.90844C8.00844 10.9309 8.90844 11.8309 8.90844 12.9309V16.9309C8.90844 18.0309 8.00844 18.9309 6.90844 18.9309H3.90844L3.89844 18.9299C2.78844 18.9199 1.89844 18.0299 1.89844 16.9199V11.9199C1.89744 6.38992 6.36844 1.91992 11.8984 1.91992C17.4214 1.91992 21.8984 6.39692 21.8984 11.9199V16.9199L21.9984 17.0019Z" fill="url(#paint0_linear_625_37)"/>
<defs>
<linearGradient id="paint0_linear_625_37" x1="8.165" y1="21.803" x2="16.3951" y2="2.64631" gradientUnits="userSpaceOnUse">
<stop stop-color="#50657B"/>
<stop offset="1" stop-color="#6F87A0"/>
</linearGradient>
</defs>
</svg>
